<?xml version="1.0" encoding="UTF-8"?>
<svg id="Layer_1" xmlns="http://www.w3.org/2000/svg" version="1.1" viewBox="0 0 491 558.9">
  <!-- Generator: Adobe Illustrator 29.4.0, SVG Export Plug-In . SVG Version: 2.1.0 Build 152)  -->
  <defs>
    <style>
      .st0 {
        fill: #f1e6c4;
      }

      .st1 {
        fill: #2060a7;
      }

      .st2 {
        fill: #fff;
      }

      .st3 {
        fill: #1f5fa7;
      }
    </style>
  </defs>
  <path d="M356.7,537.3c-4.1-3.7,12.8-5.7,13.5-7.5,3.4,3.2-12.8,8.1-13.5,7.5Z"/>
  <path d="M344.7,529.8l-13.5,6c.4-6.5,8.7-6.3,13.5-6Z"/>
  <path class="st3" d="M485.3,540.3c-3.6-6.1-33.1-22.1-41.1-26.4-23.4-12.6-50.3-25.1-75.3-34.3-5.9-2.2-27.8-7.2-30.8-9.7-4-3.3,3.5-11.9-10.9-16.1-10-2.9-30.7,2.4-34.9-10.1-5.5-16.5-6.8-34.1-10.7-50.8-1.2-5.3-9-22.2-9-23.5,0-1.2,6.9-12.1,8.3-15.2,9.8-22,28.9-60.7,28.9-83.8,0-11.9-16.9-39.5-21.2-52.4-2.4-7.1-6-24.3-6.1-31.6-.1-11.3,5.6-24.6,3.1-36.7,8.3,7.6,13.5,17.5,22.5,24.8,4.3,3.5,15.7,8.7,17.7,12.3,2,3.4,3.4,18.4,5.2,24.8,4,13.7,14.8,30.5,15.7,44.4.5,7.2-5.3,25.6-2,30.4,4.1,5.8,10.5-2.5,9.9-7.6,2.9-2.8,7.7,25.7,6,28.5,18-3.1,18.1-32.2,11.6-45.3-1.9-3.7-5.8-6.6-6.8-11.2-4.2-20.6-3.4-45.9-8.3-66.7-6.4-27.2-35.2-41.4-50.4-63.7-5.6-8.2-8.4-19.3-16.9-25.1-11.6-8-31.3-8.2-44.9-8.3l22.2-59.6c.6-6.1-5.9-10.4-4.2-16.9-6-.1-10.9,2.1-17.1,1.4-13.9-1.5-24.5-14.8-40-.7-17.8,16.1-17.8,35-10.1,56.7,1.1,3.2,5.8,4.3,3.4,8.7-4.5,8.2-24.1,7.9-32.1,9.9-17.3,4.4-23,20-34,32-10.4,11.4-52.4,48.4-45.1,64.4,18.9,20,36.5,44.3,61.3,57.3,16,8.4,20.9,6.6,35.5-4.2-3-2.8-2.3-9.2-3.2-10.9-1.1-1.9-16-5-19.2-6.3.9-2.4,9.2-2.6,6-7.5-.9-1.4-25.8-4.3-31.5-8.3-3.2-2.3-18.7-25.1-18.2-28.3.2-1.2,9.1-3.9,11.4-5.4,11.9-7.9,23.7-26.1,34.4-33.1,1.4-.9,4-2.4,5.3-1.4.6.4,4.2,10.7,6.3,14,2.2,3.4,5.3,5.4,7.5,9,12.7,20.7,11.2,47,23.4,68.2-.5,3.9-4.4,26.9-5.7,28.1-2.7,2.7-18.1,9.7-23.1,12.9-5.8,3.8-11.9,8-18,12-5.2,3.5-40.5,26.8-41.3,29.2-1.2,3.4-.4,19,.1,23.4l20.6,85.1c-2,1.8-45.9-8.2-53.3-9-6.2-.7-16.3-1.4-22.4-1.6-5.7-.1-13.5-.6-18.9.7-4.5,1.1-36.3,25.9-38.7,30.3-1,1.8-1.5,4.4-2,6.7.6,1.2.8,2.5.6,3.8.3.5.6,1,.7,1.6.1.5.3,1,.5,1.6.4.8.8,1.5,1.3,2.2.6.7,1.4,1.4,2.1,2,5.6,4.1,11.4,7.8,17.4,11.3,2.6.9,5.2,1.9,7.6,3.1,4.3,2.2,8.1,5.1,12.1,7.8.6.4,1.3.7,1.9,1,4.9,2.7,9.9,5.1,15,7.4.3-.2.8-.3,1.8,0,3.6.9,5.7,2,6.9,3.2,2.8.9,5.6,1.7,8.4,2.5,1.7.5,2.8,1.5,3.5,2.7,9.8,3.6,19.7,6.8,29.7,9.8,41.7,12.5,84.6,20.7,125.8,34.5,0,0,.2-.2.3-.2,4.5-1.2,28.3,3.2,33.9,4.8,11.6,3.5,27.7,7.5,41,10,4.9.9,13.2-.2,18.4,1.5,1.3-.7,3.1-.9,4.4-.5.8.2,1.5.6,2.2,1.2.3,0,.5,0,.8,0,1.4.3,2.9.6,4.3.8.8,0,1.6.2,2.4.2s1.4.1,2,.4c1.1-.2,2.2-.4,2.9-.4,35.7-.4,87.2,7.7,120.9-2.2,5.3-1.5,15.7-7.5,12-13.6h0ZM259.3,450c-8.2-.6-14.8-5.2-22.3-8.1-8.4-3.3-17.4-5.3-26.2-6.9-8.7-1.5-17.5-3.1-26.2-4.4-5.5-.8-12-1-16.7-4.4-4.7-3.4-5.3-9.4-7-14.5-2.8-8.4-5.3-16.4-5.8-25.3-.9-17.8,3.7-35.4-2.1-52.8-1.9-5.7,4.2-8.9,8.5-7.1,7-4.1,14.9-6.1,22.5-8.9,7.9-2.9,15.6-6.7,22.6-11.4.8-1.1,1.9-2,3.3-2.3,8.7-1.6,17.2-2.5,26-1,3.6.6,4.9,4.6,4.4,7.7-1,5.6-3.6,10.7-4.7,16.3-1.1,5.5-1.6,11.5-1.9,17.1-.6,11.3,1.6,22.4,5,33.1,6,19.3,18,36.9,22,56.8,2.2,2.4,4.1,5,4.6,8.3.6,3.7-1.6,8.2-6,7.9h0Z"/>
  <path class="st2" d="M139.9,422.6c2.2,2.2-22.4,29.4-25.6,30.8-1.9.8-4.2-.9-4.3-.7-.3.2-.6,3.5-1.6,4.9-.6,1-2.8.9-3.1,2.1-.6,3.3,1.5,6.2,1.4,8.8-.2,3.8-6.8,8.5-2.6,14,13.2,2.5,20.6-10.7,31.8-16.6,4.7-2.5,9.7-3.3,14.1-5.5,13.6-6.9,28.8-9.9,21.5-28.8,3.9-3.3,87.3,20.6,98.3,24,9.9,25.5,21.3,50.1,25.8,77.6l6.5,4.9c-16.7-2-33.2-6-49.6-9.7-37.1-8.5-93.4-18.5-127.2-31.8-2-.8-1.6-3.5-2.7-3.5-16.9-.2-50.6-16-67.2-24.2-9.5-4.7-37.9-19.9-43.1-27.5-1.1-1.6-1.9-1.6-.8-3.8,1.2-2.3,29-24.4,31.9-25.2,1.6-.4,3.3-.4,4.9-.3-2.7,8.2-27.4,19.1-26.8,27.5.3,3.8,19.7,16.6,23.4,17.2,3.3.5,4.2-.2,6.9-1.5,4.5-2.1,43-27.9,43-30.5,0-4-32.5-9-38.5-11-2-.7-4.6-.4-5-3.2,5.2.1,10.5-.3,15.8,0,11.8.6,30.4,2.5,41.9,4.6,9.8,1.8,20.4,7.3,30.9,7.4h0Z"/>
  <path class="st2" d="M303.5,536.7c7.7-.8,5.1-11.7,8.9-15.9,3.6-3.9,9.9-.2,10.7-8.9.5-5-2.6-17.8-4.5-22.6-2.6-6.3-10.3-12.3-12-16.5-2.1-5,12.7.4,14.4.6,38.4,4.9,74.3,20.7,108.7,38.4,6.4,3.3,49.3,27.1,49.5,30-9,5.6-20.7,3.2-30.7,3.8-43.2,2.5-88.9,1.6-131.9-4.7-1.8-.3-14.7-1.9-13-4.3h0Z"/>
  <path class="st0" d="M222.5,524.7c.2,2.8-4.9,1.5-6.6,1.3-12.1-1.1-30.5-5.5-42.8-8.3-44.2-10.2-93.2-26.7-132.8-48.8-11.2-6.2-24.3-13.9-32.6-23.7l35,22.7c17.2,6.5,33.5,16.4,50.6,23,41,15.9,86.4,23.6,129.1,33.8h0Z"/>
  <path class="st0" d="M450.6,551.6c.4,2.6-3.4,1.4-5.2,1.5-38,1.5-76-1.5-113.9-3.2l-17.5-4.3,81.8,6h54.9Z"/>
  <path class="st0" d="M84.3,422.6c1.2,1.1-1.6,4.5-3.1,5.1-11.1,6.2-21.2,15.6-31.5,22.5-1.8,1.2-3.4,2.8-5.9,2.4l33.1-27.6c1.3-1.3,6.4-3.2,7.4-2.3h0Z"/>
  <path class="st0" d="M330.4,466c-2.2,1.7-25.8-5.4-29.2-7.3-2.1-1.1-4.4-1.2-3.7-4.6,6.4,7.3,30.7,1.7,33.9,7.5.5.8-.8,4.3-1,4.4h0Z"/>
  <path class="st0" d="M72.3,421.2c-7.1,7.7-17,17-25.4,23.3-2,1.5-3.2,2.8-6.1,2.2,5.7-4.5,10.3-10.4,15.8-14.9,4.4-3.7,10.4-8.3,15.7-10.5h0Z"/>
  <path class="st0" d="M43.8,436.2c.5.4-7.1,9.1-9,7.5.7-1.9,7.2-9,9-7.5Z"/>
  <path class="st2" d="M303.5,532.1c-5.7-2-3.9-7.6-5.2-12.1-1.4-5.1-10.7-30.8-9.2-33,1.1-1.6,5.5-1.8,7.5-3.1,2.5-1.7,4.6-8.1,7.7-7.3,4.5,1.1,19.8,34.1,10.3,38.9-15.1-7.9-7.6,8-11.1,16.6h0Z"/>
  <path class="st0" d="M288.5,227.7c4.1,3.8-19.3,10.9-21,11.3-8.3,1.9-52.2,5.3-57.1.7-2.1-2,.2-2.8,2.3-3,5-.5,12.3,2.1,18,2.2,9.1.1,23.9-.7,32.8-2.3,5.2-.9,24-9.7,24.9-8.8h0Z"/>
  <path class="st2" d="M216.9,17.2c4.3,3.5,8.2.2,8.6.5,3,2.9-5.9,3-3,6,.8.8,4.1-2.8,4.5-.7.9,6.3-4.1,13.4-10.1,7.8-.5-.5-7.4-12-7.6-12.7-.9-3,.5-4.5,3.8-4.7,3.1-.2,2.5,2.7,3.9,3.8Z"/>
  <path class="st2" d="M207.4,46.2c-.4-.3,1.6-2.4.8-4.4-.8-1.9-13.9-15.2-7.6-16.6,1.8-.4,12,12.1,12.5,14.6,1,4.6-2.7,8.7-5.8,6.4h0Z"/>
  <path class="st2" d="M248,16.2c-4.9,11.6-5.9,8.8-9-1.5l9,1.5Z"/>
  <path class="st2" d="M202.9,292.2l-12-15c2.3-2.1,13.6,11.1,12,15Z"/>
  <path class="st2" d="M279.5,302.7h-12.7s-2.2-3-2.2-3c5.7-1,9.9,1.3,15,3h0Z"/>
  <path class="st2" d="M212.6,84.6c3.3,4.3,3.6,7.7,9.9,6.6l-1.5,10.5c4.9,1.1,2.9-4.8,6-6.7.6-.4,13.5-4.7,14.3-4.7,1.5,0,3.8,2.2,6.1,2.4,9.9.6,20-.8,29.8,1.8,17.5,4.6,18.3,21.2,28,33.5,9.9,12.7,38.4,33.8,43.6,46.5.9,2.3,3.8,13,2.9,14.3l-3-1.5v4.5l4.5-1.5c3.2,19.7,2.9,46.2,9.4,64.8,1.5,4.4,4.3,5.7,5.9,9.1,4.1,8.6,2.5,17.3,2.7,26.5-2.5.7-.7-3.1-2.3-3.1-1.3,0-4.6,2.3-5.2,1.6,1.2-3.6-3.9-18.8-6.8-19.5-4.9-1.1-5,9.3-8.2,10.5-.6-6.9,2.9-13.6,3.1-20.2.5-17.5-12.1-37.8-17.1-55.1-1.9-6.6-1.6-14.7-3.6-20.4-1.2-3.4-15.3-10.7-19.2-13.9-12-9.8-21.2-24.2-28.9-37.5-3.7.8-20.7-5.3-21.4-4.5-4,4.3,7.1,7.3,8.9,8.4,1.7,1.1,3,3,4.8,4.3,1.3,1,4.1.7,4.4.9,4.2,4.2-4.1,1-5.3,3-2.1,3.6,3.2,6.4,6.8,1.5,3.2,4.5-4.6,31.1-4.6,38.2,0,7.4,8,35.4,7.5,37.2-.5,1.9-2.8,2.4-4.3,3.3-11.1,6.4-43.6,9.6-56.2,8.1-1.9-.2-8.5-2.1-9.5-3.2-1.3-1.3-11.9-31.6-12.2-35.1-.6-5.9,2.4-2.1,5.9-5.8-1.5-3.1-6.4-1.2-7.6-3.2-1.4-2.4-2.5-10.4-3.7-14-1.8-5.2-9-13.9-2.2-15.8-10.7-5.7-20.7-16.3-22.2-28.9-.3-2.1,1.6-5.9,1.2-6.4s-10.1-1.8-12-1.5c-.7,5.5,6.8,2.2,3.8,9-.9,1.9-25.8,26.4-29.3,29.3-3.1,2.6-17.9,13.3-20.7,14-3.9,1-9-3.2-9.4-2-1.4,5.2,7,5,10.3,9.2,3.6,4.6,10.4,16.5,13.8,22.2,1.4,2.2.9,5.3,1.7,6.5,2.4,3.5,18.8,2.4,23.7,4.9l-9,1.5c.2,1.2-.3,4,0,4.4.6.7,14.2,3.6,16.4,5.4l9.1,8.1c-6.3,1.5-10.6-2.6-16.5-3l5.2,6c-4.1-1.1-10.8-1.6-14.1-3.9-3.2-2.2-6.7-4.3-9.9-6.6-16-11.1-31.3-31.2-44-45.5,8.5-23.7,29.2-39.7,45.6-58,6.1-6.8,15.1-22.1,21.8-26.2,9.1-5.6,25-3.6,36-9,3.8-1.9,8.8-8.3,11.3-8.3,3.6,0,3.9,4.5,5.9,7h0Z"/>
  <path class="st1" d="M237.5,214.2c-7.4,5.8-15.4-25.8-15.9-29.9-.2-1.7-1.1-6.1,1.6-6,4.1.1,9.9,31.5,14.3,35.9h0Z"/>
  <path class="st1" d="M266,146.7c2.4,12.5-32.9,12.7-33,6.8,0-4.9,19.5,0,23.2-.8,3.6-.7,6.1-5.1,9.8-6Z"/>
  <path class="st1" d="M264.5,182.7c1.4,3.8-6.8,5.1-9,5.4-4.3.5-11.1-1.9-7.5-5.4s14.2,1.2,16.5,0Z"/>
  <path class="st1" d="M210.4,106.2c-.9-1.4-18.8-5.7-15-9,2.1-1.8,16.2,3.8,15,9Z"/>
  <path class="st1" d="M255.5,193.2c4.5,1,7.9,1,12-1.5,2.5,2.4-13.3,14.1-12,1.5h0Z"/>
  <path class="st1" d="M240.5,100.2c-2.4,3.9-7.4,6.6-12,6-.4-5.1,8.8-6,12-6Z"/>
  <path class="st2" d="M150.7,323.3c-2.2-1.4-1.1-7.4-9.3-.4,10.2,5.9,11.3,16,12,26.9,1.5,21.1-3.4,35.5,2.5,57.5,1.6,6.1,11.4,26.9,11,30.9,0,.5-3.5,9.7-3.9,10-3.4,2.6-8.9-.7-9.6-.1l1.5,4.5c-7.1-2.4-7.3,2.7-9.1,3.6-5.3,2.7-10.9,4.3-16.3,7.8-7.5,4.8-12.7,12.1-21.1,15.6-3.2-4.3,7.8-12.9,9-15.8,1.3-3-4.2-1.5-3-4.5l23.6-22.3c0-7.2,3.3-2,5-3.1,3.1-2.2,3.2-16.8,2.6-20.8-4.4-27.8-18.8-60.5-21.7-87.8-.5-4.3-1.3-9.8.4-13.8,2.1-4.9,47.6-34.4,54.1-34.6,8.9-.3,22.7,19.1,24.6,27.7-8.1,5.6-44.5,23.3-52.1,18.6Z"/>
  <path class="st1" d="M135.4,334.2l1.5,10.5c-3.2-.5-7.9-11.5-1.5-10.5Z"/>
  <path class="st2" d="M260,377.6l5.2-4.5.8,4.5c.5.6,4.2-1.7,4.5-1.5.6.5,5,13.1,5.4,14.9,4.4,20.4,6,38.4,12.7,59.3,1.5,4.7,7.4,15.4,7.5,18.1.2,4.5-6.6,11.9-11.4,8.2-3.3-2.5-13.8-33.2-16.9-40.1-7.1-16.1-14.9-32.1-22.7-47.8l7.4-5.2c-7.5-.8-12.1-5.1-14-12.3-2.1-8.1,1.6-43,3.5-52.9,2.9-15.5,49.8-17.2,44.7,7.1-1.2,5.7-12.6,29.1-16.1,34.9-3.5,5.8-10.3,10.1-10.5,17.2h0Z"/>
  <path class="st1" d="M260,361.2l-6.7,12c-4.8-3.7,4-10.1,6.7-12Z"/>
  <path class="st2" d="M285.2,240.1c.3.2.2,1.9.6,2.1,1,.5,3.4-1.9,5.9,1.2,1.7,2.1-2.2,7.5,5.9,6.8,1.6,4.8-3.8,2.2-4.5,3-1.3,1.4,1.4,8,4.5,8.3,1.3,2.8-3,2-3.1,3-.3,2.7,2.1,4.1,2.3,6,.2,1.4,1.1,10.8.7,11.2-.2.3-5.4,0-6,2.3-.7,2.7,5.1,5.5,6,7.5.2.4-5.2,2.2-4.5,7.5,1,2.7,4.4.6,4.5.8,1.1,2-3.4,6.3-3,9-7.5-7.9-17.6-15.5-29.2-15-5.1.2-23.4,7.1-17.8-1.4,3.4-5.1,6.9-6.5,4.9-15.1-6.9-.9-7.5,12.8-12.7,10.5-4.9-2.2-4.4-16.1-6-19.5-1.1-2.2-14-12.3-14.3-3.8l4.5,5.2c-8.8,2.4-2.5,4.2-.9,7.7,1.2,2.5,2.5,7.8,3.8,9.3,1.7,2.1,9.9,2.7,9.1,8.5l-22.5,7.5c-1-7-5.6-17.5-9.7-23.4-1-1.5-5.2-4.1-7.2-5.6-2.9-2.2-9.4-4.3-6.2-7.1,8.1-7.2,22.4-3.7,18.6-20.9,6.1-.7,11.5,2.5,17.3,3,9.8.9,32-1.2,41.9-3.1,4-.8,14.6-6.7,17-5.4h0Z"/>
  <path class="st1" d="M274,267.1c-1.2,1.6-.4,4.5-2.9,5.4-4.6,1.6-22.1,2.9-13.2-5.6,2.5-2.4,19.1-8.7,20.1-3.9.6,2.8-2.9,2.8-4,4.2Z"/>
  <path class="st2" d="M236,58.2c.3,1.7.4,11.6,0,12s-5.9-.3-7.5,0c-1.2,5.9,6.5,8.1,10.3,5.8,2.2-1.4.5-8.3.9-8.9,2.3-3.3,9.8,1.7,5.4-5.9,2.7-.2,3.2-.8,3,2.2-.2,5.2-9.9,26.7-14.5,27.5-1.8.3-13.2-6.1-15.1-7.8-3.1-2.8-4.9-8.3-7.4-11.4-2.3-2.9-7.4-3.4-8.2-8.4-1.5-9.5,5.4-15.3,6-2.2,11.8,1,9.8-21.6,18.8-22.5,4.3-.4,9.9,4,13.8,4.2,2.1,0,5.5-3.5,9.3-1v16.4c-8.7-8.7-9.9-.6-14.9,0-1.4-8.8-8.6-5.6-15-4.5,1.5,8.5-2.4,10.6,9,10.5l-1.5-6c2.4-.2,5.1.3,7.5,0h0Z"/>
  <path class="st1" d="M237.5,82.2c-4,0-10.7,1.5-10.5-4.5,4,0,10.7-1.5,10.5,4.5Z"/>
</svg>