<?xml version="1.0" encoding="UTF-8"?><svg id="Layer_1" xmlns="http://www.w3.org/2000/svg" width="491.04" height="558.88" viewBox="0 0 491.04 558.88"><path d="M356.74,537.26c-4.09-3.65,12.84-5.73,13.49-7.49,3.36,3.2-12.81,8.1-13.49,7.49Z"/><path d="M344.71,529.78l-13.5,5.98c.37-6.51,8.71-6.27,13.5-5.98Z"/><path d="M485.27,540.31c-3.61-6.06-33.11-22.11-41.12-26.43-23.4-12.62-50.34-25.11-75.28-34.27-5.91-2.17-27.81-7.17-30.82-9.7-3.97-3.33,3.55-11.91-10.9-16.1-9.97-2.89-30.74,2.4-34.93-10.1-5.53-16.51-6.81-34.06-10.67-50.83-1.22-5.29-9.02-22.23-9-23.49.01-1.25,6.9-12.12,8.27-15.2,9.76-21.98,28.94-60.74,28.86-83.77-.04-11.88-16.85-39.49-21.2-52.43-2.39-7.11-5.98-24.29-6.07-31.57-.14-11.27,5.56-24.55,3.14-36.73,8.29,7.56,13.52,17.51,22.49,24.76,4.33,3.5,15.72,8.74,17.74,12.28,1.96,3.44,3.36,18.38,5.23,24.77,4.03,13.72,14.82,30.51,15.74,44.4.48,7.24-5.34,25.62-2,30.36,4.1,5.8,10.52-2.53,9.86-7.58,2.85-2.81,7.73,25.66,6,28.49,17.96-3.12,18.15-32.18,11.61-45.34-1.86-3.74-5.82-6.56-6.77-11.23-4.18-20.56-3.35-45.95-8.26-66.74-6.43-27.22-35.18-41.44-50.37-63.66-5.61-8.22-8.38-19.3-16.87-25.14-11.57-7.96-31.32-8.24-44.93-8.35l22.2-59.59c.59-6.08-5.88-10.44-4.19-16.9-6.04-.11-10.87,2.08-17.12,1.4-13.93-1.52-24.51-14.75-40-.71-17.76,16.11-17.77,34.96-10.06,56.68,1.13,3.19,5.83,4.29,3.45,8.65-4.49,8.22-24.06,7.91-32.14,9.95-17.3,4.37-22.98,19.95-33.97,32.05-10.36,11.41-52.38,48.42-45.09,64.42,18.88,19.97,36.5,44.31,61.29,57.34,15.99,8.4,20.93,6.65,35.54-4.16-2.98-2.81-2.28-9.21-3.25-10.85-1.09-1.86-16.03-5-19.22-6.3.92-2.43,9.23-2.55,5.99-7.46-.9-1.36-25.84-4.27-31.5-8.29-3.19-2.27-18.69-25.09-18.15-28.33.21-1.25,9.1-3.87,11.39-5.38,11.95-7.87,23.68-26.13,34.44-33.08,1.4-.9,4-2.35,5.31-1.42.63.44,4.17,10.7,6.29,13.98,2.18,3.35,5.3,5.35,7.53,8.97,12.71,20.66,11.21,47.01,23.45,68.16-.48,3.91-4.44,26.88-5.7,28.15-2.66,2.68-18.09,9.67-23.09,12.94-5.82,3.8-11.89,7.99-17.96,12.04-5.23,3.49-40.49,26.83-41.3,29.23-1.16,3.39-.45,18.97.14,23.36l20.62,85.12c-1.99,1.84-45.9-8.18-53.31-8.97-6.19-.66-16.26-1.43-22.43-1.59-5.7-.14-13.55-.58-18.93.71-4.51,1.08-36.31,25.88-38.73,30.29-.96,1.76-1.46,4.44-2.01,6.74.57,1.19.76,2.51.6,3.83.34.49.61,1.02.73,1.62.11.54.31,1.05.48,1.57.37.76.8,1.49,1.29,2.19.63.74,1.39,1.35,2.09,2.01,5.59,4.07,11.44,7.8,17.42,11.32,2.59.88,5.15,1.87,7.59,3.14,4.29,2.23,8.12,5.1,12.07,7.84.64.35,1.29.7,1.93,1.05,4.88,2.67,9.88,5.1,14.95,7.39.28-.21.76-.29,1.79-.03,3.61.94,5.73,2.02,6.87,3.17,2.8.86,5.62,1.67,8.44,2.47,1.7.48,2.78,1.49,3.48,2.66,9.8,3.57,19.74,6.78,29.68,9.75,41.66,12.47,84.58,20.71,125.83,34.53.08-.08.16-.18.26-.21,4.54-1.18,28.3,3.17,33.89,4.85,11.6,3.49,27.7,7.5,41,10.04,4.91.94,13.22-.17,18.38,1.47,1.31-.69,3.06-.88,4.44-.5.79.22,1.54.63,2.2,1.15.26.03.52,0,.78.04,1.44.29,2.88.57,4.33.81.78.08,1.57.16,2.35.16.72,0,1.4.13,2.04.36,1.13-.23,2.17-.39,2.93-.4,35.68-.36,87.21,7.69,120.89-2.21,5.28-1.55,15.68-7.5,12.04-13.62ZM259.3,450.01c-8.21-.6-14.78-5.19-22.26-8.12-8.4-3.29-17.35-5.34-26.21-6.92-8.71-1.55-17.5-3.06-26.23-4.4-5.47-.84-12.02-1.05-16.67-4.4-4.7-3.39-5.32-9.4-7.02-14.54-2.78-8.4-5.3-16.4-5.75-25.32-.89-17.76,3.66-35.37-2.12-52.77-1.88-5.66,4.19-8.88,8.53-7.15,7.04-4.12,14.86-6.08,22.47-8.86,7.86-2.88,15.65-6.66,22.59-11.38.76-1.13,1.85-1.99,3.29-2.27,8.66-1.64,17.23-2.47,25.98-1.03,3.59.59,4.9,4.65,4.37,7.7-.96,5.58-3.55,10.7-4.69,16.27-1.14,5.54-1.6,11.45-1.91,17.09-.63,11.3,1.64,22.37,4.96,33.12,5.98,19.32,18.04,36.9,22.04,56.75,2.17,2.44,4.11,4.97,4.65,8.32.59,3.69-1.59,8.25-6.04,7.93Z" style="fill:#1f5fa7;"/><path d="M139.9,422.65c2.24,2.21-22.45,29.41-25.59,30.79-1.87.83-4.17-.88-4.35-.74-.29.22-.6,3.46-1.57,4.9-.64.95-2.83.9-3.06,2.06-.64,3.3,1.48,6.22,1.37,8.81-.16,3.75-6.76,8.54-2.63,13.96,13.21,2.47,20.58-10.71,31.79-16.57,4.71-2.46,9.71-3.26,14.06-5.45,13.6-6.86,28.82-9.92,21.5-28.76,3.87-3.28,87.3,20.6,98.3,24.02,9.87,25.5,21.28,50.12,25.84,77.56l6.46,4.89c-16.68-1.97-33.21-5.95-49.55-9.71-37.13-8.54-93.4-18.5-127.25-31.81-1.98-.78-1.64-3.45-2.71-3.46-16.92-.18-50.63-15.96-67.22-24.21-9.46-4.7-37.89-19.87-43.09-27.49-1.08-1.59-1.86-1.59-.75-3.77,1.16-2.29,29.05-24.44,31.94-25.19,1.61-.42,3.29-.38,4.93-.31-2.68,8.19-27.42,19.11-26.76,27.48.3,3.77,19.71,16.63,23.39,17.24,3.32.55,4.18-.2,6.89-1.48,4.45-2.11,43-27.87,42.99-30.51,0-3.98-32.55-9.04-38.46-11.05-1.97-.67-4.58-.43-5.05-3.19,5.22.13,10.51-.27,15.75,0,11.76.61,30.39,2.54,41.93,4.6,9.75,1.75,20.43,7.29,30.9,7.39Z" style="fill:#f1e6c4;"/><path d="M303.53,536.66c7.69-.76,5.09-11.73,8.9-15.89,3.62-3.94,9.87-.16,10.72-8.86.49-5.01-2.57-17.79-4.55-22.58-2.62-6.33-10.27-12.33-12.05-16.46-2.15-4.98,12.7.4,14.4.62,38.44,4.85,74.29,20.66,108.72,38.36,6.37,3.27,49.31,27.13,49.48,30.03-9.03,5.63-20.7,3.19-30.73,3.77-43.2,2.49-88.91,1.57-131.94-4.7-1.83-.27-14.7-1.91-12.95-4.28Z" style="fill:#f1e6c4;"/><path d="M222.46,524.65c.22,2.81-4.86,1.45-6.55,1.29-12.05-1.13-30.53-5.48-42.75-8.29-44.21-10.17-93.19-26.72-132.8-48.8-11.2-6.24-24.27-13.87-32.57-23.69l35.02,22.74c17.22,6.55,33.45,16.36,50.56,22.98,40.95,15.86,86.43,23.64,129.09,33.77Z" style="fill:#f1e6c4;"/><path d="M450.65,551.64c.35,2.61-3.41,1.41-5.23,1.48-38.05,1.51-76.03-1.46-113.92-3.19l-17.45-4.29,81.75,6.05,54.85-.04Z" style="fill:#f1e6c4;"/><path d="M84.34,422.65c1.19,1.09-1.6,4.47-3.11,5.12-11.13,6.16-21.22,15.61-31.53,22.49-1.83,1.22-3.41,2.81-5.88,2.36l33.11-27.65c1.31-1.32,6.4-3.24,7.41-2.32Z" style="fill:#f1e6c4;"/><path d="M330.44,466.04c-2.18,1.73-25.78-5.43-29.23-7.33-2.09-1.15-4.37-1.23-3.67-4.56,6.4,7.32,30.67,1.74,33.86,7.47.45.81-.79,4.29-.97,4.43Z" style="fill:#f1e6c4;"/><path d="M72.34,421.16c-7.14,7.72-16.99,17.04-25.44,23.31-2.04,1.51-3.16,2.77-6.08,2.16,5.66-4.48,10.3-10.36,15.81-14.94,4.42-3.68,10.4-8.32,15.72-10.53Z" style="fill:#f1e6c4;"/><path d="M43.82,436.16c.48.42-7.09,9.15-9.01,7.47.72-1.88,7.23-9.03,9.01-7.47Z" style="fill:#f1e6c4;"/><path d="M303.51,532.13c-5.7-2.04-3.9-7.58-5.18-12.06-1.44-5.06-10.74-30.82-9.19-32.99,1.15-1.63,5.46-1.76,7.46-3.11,2.46-1.66,4.65-8.08,7.66-7.33,4.47,1.12,19.76,34.11,10.32,38.92-15.09-7.87-7.58,7.98-11.07,16.57Z" style="fill:#f1e6c4;"/><path d="M288.51,227.68c4.08,3.78-19.27,10.91-20.96,11.29-8.26,1.87-52.24,5.27-57.1.68-2.09-1.98.16-2.83,2.28-3.04,5.02-.49,12.26,2.13,17.99,2.21,9.09.12,23.95-.7,32.85-2.31,5.21-.94,23.96-9.72,24.93-8.83Z" style="fill:#f1e6c4;"/><path d="M216.91,17.22c4.28,3.55,8.22.17,8.55.49,3,2.92-5.95,3.05-2.98,5.99.84.84,4.1-2.79,4.51-.72.86,6.33-4.13,13.44-10.14,7.82-.54-.51-7.39-11.97-7.61-12.67-.93-3.04.48-4.54,3.76-4.72,3.06-.16,2.54,2.68,3.91,3.81Z" style="fill:#f1e6c4;"/><path d="M207.45,46.19c-.41-.31,1.62-2.41.82-4.4-.78-1.92-13.94-15.23-7.55-16.57,1.78-.37,11.98,12.12,12.49,14.58.96,4.63-2.72,8.72-5.76,6.4Z" style="fill:#f1e6c4;"/><path d="M247.99,16.22c-4.9,11.55-5.95,8.81-9-1.51l9,1.51Z" style="fill:#f1e6c4;"/><path d="M202.93,292.16l-11.99-14.98c2.26-2.11,13.61,11.07,11.99,14.98Z" style="fill:#f1e6c4;"/><path d="M279.5,302.68l-12.74-.05-2.25-2.96c5.67-.97,9.9,1.29,14.99,3.01Z" style="fill:#f1e6c4;"/><path d="M212.58,84.6c3.31,4.27,3.64,7.74,9.89,6.61l-1.5,10.48c4.89,1.06,2.85-4.84,6.01-6.73.65-.39,13.52-4.67,14.28-4.7,1.47-.06,3.75,2.24,6.06,2.37,9.93.56,20.02-.8,29.77,1.75,17.52,4.59,18.31,21.16,27.99,33.53,9.92,12.69,38.38,33.81,43.56,46.47.93,2.28,3.82,13.04,2.93,14.31l-2.98-1.52v4.51s4.48-1.49,4.48-1.49c3.17,19.67,2.87,46.25,9.41,64.85,1.53,4.35,4.31,5.74,5.92,9.09,4.12,8.58,2.46,17.33,2.69,26.54-2.55.69-.71-3.14-2.31-3.09-1.26.04-4.59,2.28-5.17,1.59,1.25-3.62-3.92-18.82-6.78-19.49-4.9-1.15-5.05,9.3-8.22,10.49-.59-6.85,2.9-13.56,3.09-20.23.49-17.47-12.07-37.84-17.06-55.05-1.91-6.57-1.62-14.68-3.58-20.36-1.18-3.42-15.31-10.68-19.2-13.87-11.98-9.81-21.21-24.17-28.88-37.49-3.68.78-20.7-5.27-21.44-4.46-3.97,4.34,7.15,7.3,8.88,8.36,1.74,1.06,2.95,2.99,4.78,4.3,1.34.96,4.15.66,4.35.85,4.19,4.17-4.13,1.03-5.27,2.98-2.13,3.63,3.19,6.43,6.76,1.5,3.22,4.53-4.57,31.14-4.6,38.25-.03,7.39,8.01,35.43,7.48,37.25-.54,1.86-2.78,2.44-4.29,3.31-11.07,6.38-43.58,9.63-56.24,8.05-1.89-.24-8.47-2.15-9.54-3.22-1.31-1.32-11.88-31.65-12.24-35.1-.62-5.93,2.43-2.08,5.86-5.79-1.54-3.07-6.42-1.18-7.56-3.23-1.36-2.44-2.47-10.36-3.73-13.96-1.84-5.24-9.04-13.95-2.19-15.8-10.73-5.66-20.67-16.33-22.21-28.86-.26-2.13,1.6-5.95,1.21-6.38s-10.15-1.76-12.01-1.5c-.66,5.49,6.81,2.25,3.76,8.99-.85,1.89-25.82,26.39-29.27,29.26-3.11,2.59-17.9,13.27-20.68,13.96-3.89.97-9.03-3.22-9.37-1.97-1.44,5.19,7,4.96,10.32,9.19,3.59,4.57,10.36,16.5,13.83,22.21,1.35,2.23.91,5.26,1.74,6.47,2.39,3.51,18.81,2.45,23.66,4.88l-9.01,1.49c.2,1.24-.34,4,.03,4.44.55.67,14.23,3.56,16.39,5.4l9.11,8.13c-6.32,1.49-10.62-2.61-16.5-2.98l5.22,6.02c-4.06-1.12-10.79-1.59-14.14-3.88-3.22-2.2-6.72-4.32-9.95-6.56-16.01-11.12-31.3-31.17-43.96-45.54,8.53-23.73,29.21-39.68,45.56-58.01,6.06-6.79,15.1-22.08,21.8-26.21,9.12-5.61,25.04-3.58,35.98-9.04,3.82-1.91,8.81-8.34,11.26-8.34,3.57,0,3.93,4.49,5.87,6.98Z" style="fill:#f1e6c4;"/><path d="M237.48,214.16c-7.43,5.79-15.38-25.75-15.86-29.91-.19-1.66-1.06-6.12,1.59-6.04,4.15.12,9.86,31.53,14.26,35.95Z" style="fill:#2060a7;"/><path d="M265.99,146.69c2.4,12.5-32.87,12.69-32.98,6.75-.09-4.88,19.46-.05,23.2-.77,3.59-.69,6.06-5.08,9.78-5.98Z" style="fill:#2060a7;"/><path d="M264.49,182.69c1.42,3.82-6.78,5.15-8.99,5.41-4.28.5-11.05-1.87-7.51-5.41.58-.58,14.16,1.24,16.5,0Z" style="fill:#2060a7;"/><path d="M210.44,106.19c-.88-1.4-18.83-5.69-14.99-8.99,2.07-1.78,16.17,3.85,14.99,8.99Z" style="fill:#2060a7;"/><path d="M255.5,193.19c4.54.97,7.89.97,11.99-1.51,2.45,2.44-13.34,14.12-11.99,1.51Z" style="fill:#2060a7;"/><path d="M240.48,100.21c-2.43,3.86-7.38,6.62-12,5.98-.45-5.11,8.83-5.96,12-5.98Z" style="fill:#2060a7;"/><path d="M150.7,323.33c-2.2-1.36-1.07-7.42-9.27-.42,10.23,5.85,11.28,16.04,12.04,26.93,1.48,21.12-3.37,35.45,2.49,57.51,1.62,6.12,11.41,26.87,10.97,30.93-.06.53-3.5,9.68-3.93,10.01-3.35,2.56-8.94-.68-9.59-.14l1.49,4.48c-7.09-2.4-7.34,2.74-9.08,3.62-5.32,2.68-10.91,4.28-16.32,7.76-7.5,4.83-12.71,12.08-21.12,15.63-3.23-4.33,7.77-12.91,8.98-15.77,1.27-3.01-4.24-1.45-2.98-4.46l23.62-22.26c-.05-7.18,3.28-1.96,4.97-3.14,3.15-2.2,3.2-16.78,2.56-20.76-4.44-27.82-18.78-60.54-21.73-87.75-.46-4.28-1.33-9.77.36-13.8,2.06-4.89,47.62-34.4,54.06-34.65,8.89-.34,22.68,19.06,24.61,27.72-8.1,5.65-44.49,23.29-52.13,18.56Z" style="fill:#f1e6c4;"/><path d="M135.37,334.16l1.51,10.49c-3.2-.53-7.93-11.55-1.51-10.49Z" style="fill:#2060a7;"/><path d="M260.01,377.65l5.25-4.49.75,4.51c.48.59,4.17-1.74,4.47-1.53.65.46,4.95,13.11,5.35,14.94,4.44,20.44,6.04,38.39,12.66,59.34,1.48,4.67,7.4,15.36,7.55,18.11.25,4.51-6.57,11.91-11.38,8.22-3.32-2.54-13.83-33.16-16.9-40.12-7.09-16.06-14.93-32.06-22.73-47.79l7.45-5.17c-7.47-.84-12.09-5.06-13.98-12.29-2.13-8.13,1.65-43.05,3.5-52.94,2.92-15.55,49.84-17.22,44.66,7.13-1.2,5.66-12.62,29.11-16.13,34.87-3.53,5.78-10.29,10.1-10.53,17.21Z" style="fill:#f1e6c4;"/><path d="M259.98,361.16l-6.74,11.97c-4.81-3.66,3.99-10.11,6.74-11.97Z" style="fill:#2060a7;"/><path d="M285.22,240.14c.33.17.21,1.85.58,2.05.96.52,3.41-1.95,5.86,1.16,1.7,2.15-2.24,7.54,5.86,6.84,1.57,4.82-3.75,2.21-4.51,2.99-1.33,1.35,1.42,8.01,4.52,8.26,1.31,2.78-2.99,2.04-3.1,3.02-.31,2.69,2.07,4.14,2.32,5.99.18,1.37,1.12,10.75.73,11.16-.25.27-5.39.06-5.96,2.33-.67,2.7,5.13,5.46,5.99,7.48.18.43-5.19,2.16-4.5,7.47,1.02,2.72,4.38.57,4.49.77,1.09,2.01-3.41,6.34-3.01,9-7.55-7.85-17.62-15.5-29.2-15-5.07.22-23.36,7.11-17.77-1.39,3.39-5.15,6.85-6.48,4.94-15.1-6.94-.91-7.53,12.78-12.72,10.46-4.9-2.19-4.42-16.13-6.02-19.49-1.06-2.23-13.97-12.27-14.28-3.75l4.5,5.24c-8.81,2.4-2.54,4.18-.88,7.66,1.2,2.51,2.51,7.82,3.79,9.34,1.72,2.06,9.85,2.73,9.11,8.51l-22.51,7.52c-1-7.01-5.6-17.5-9.68-23.38-1.03-1.49-5.18-4.06-7.21-5.6-2.88-2.18-9.44-4.3-6.21-7.15,8.15-7.18,22.44-3.7,18.59-20.88,6.05-.72,11.46,2.47,17.28,2.99,9.75.87,32.01-1.2,41.94-3.07,3.99-.75,14.63-6.7,17.05-5.45Z" style="fill:#f1e6c4;"/><path d="M273.99,267.14c-1.17,1.56-.36,4.49-2.9,5.35-4.65,1.58-22.1,2.92-13.16-5.64,2.49-2.39,19.09-8.7,20.07-3.91.58,2.82-2.94,2.77-4.01,4.2Z" style="fill:#2060a7;"/><path d="M235.98,58.2c.27,1.7.43,11.58,0,12.01s-5.85-.32-7.51,0c-1.23,5.87,6.53,8.1,10.29,5.79,2.23-1.37.49-8.32.87-8.86,2.34-3.34,9.76,1.73,5.35-5.92,2.71-.15,3.17-.75,3.03,2.24-.25,5.16-9.93,26.67-14.49,27.54-1.82.35-13.19-6.09-15.05-7.82-3.06-2.85-4.93-8.28-7.38-11.37-2.3-2.91-7.4-3.44-8.18-8.44-1.47-9.48,5.43-15.28,6.04-2.16,11.78,1.04,9.81-21.62,18.79-22.52,4.32-.43,9.94,4.02,13.76,4.16,2.09.08,5.52-3.55,9.33-1.01l.12,16.36c-8.81-8.74-10.05-.6-15,0-1.41-8.8-8.56-5.57-15.03-4.49,1.48,8.5-2.36,10.55,9.02,10.48l-1.49-5.98c2.45-.24,5.07.28,7.51-.01Z" style="fill:#f1e6c4;"/><path d="M237.47,82.19c-3.96-.03-10.67,1.54-10.49-4.48,3.96.03,10.67-1.54,10.49,4.48Z" style="fill:#2060a7;"/></svg>